<svg width="586" height="586" viewBox="0 0 586 586" fill="none" xmlns="http://www.w3.org/2000/svg">
<path d="M382.664 6H203.277C182.051 6 164.844 23.2069 164.844 44.4327V500.567C164.844 521.793 182.051 539 203.277 539H382.664C403.89 539 421.097 521.793 421.097 500.567V44.4327C421.097 23.2069 403.89 6 382.664 6Z" fill="#222E42"/>
<path d="M421.078 213.301H422.463C422.956 213.301 423.418 213.101 423.743 212.786C424.1 212.451 424.32 211.968 424.32 211.443V161.963C424.32 161.448 424.11 160.987 423.775 160.651C423.439 160.315 422.977 160.105 422.463 160.105H421.078V213.301V213.301Z" fill="#222E42"/>
<path d="M164.833 114.258H163.689C163.154 114.258 162.682 114.017 162.378 113.629C162.147 113.335 162 112.968 162 112.569V99.7478C162 99.2127 162.252 98.7406 162.63 98.4258C162.923 98.195 163.291 98.0586 163.689 98.0586H164.833V114.269V114.258Z" fill="#222E42"/>
<path d="M164.833 164.703H163.689C163.165 164.703 162.692 164.462 162.388 164.084C162.147 163.791 162 163.413 162 163.004V135.84C162 135.378 162.189 134.948 162.493 134.644C162.797 134.339 163.217 134.15 163.689 134.15H164.833V164.693V164.703Z" fill="#222E42"/>
<path d="M164.833 212.086H163.689C163.228 212.086 162.797 211.897 162.493 211.593C162.189 211.289 162 210.869 162 210.397V183.233C162 182.666 162.273 182.173 162.703 181.858C162.986 181.659 163.322 181.533 163.689 181.533H164.833V212.076V212.086Z" fill="#222E42"/>
<path d="M383.499 14.3184L340.953 14.3289C338.886 14.3289 337.207 16.0076 337.207 18.0745V23.6354C337.207 28.5457 333.231 32.5222 328.321 32.5222H259.281C254.371 32.5222 250.394 28.5457 250.394 23.6354V18.0745C250.394 16.0076 248.716 14.3289 246.649 14.3289H204.113C187.483 14.3289 174 27.8112 174 44.4413V500.565C174 517.195 187.483 530.678 204.113 530.678H383.499C400.13 530.678 413.612 517.195 413.612 500.565V44.4308C413.612 27.8007 400.13 14.3184 383.499 14.3184Z" fill="#0C1B2C"/>
<path d="M265.273 180.01H268.062C268.008 177.307 265.703 175.393 262.297 175.393C258.938 175.393 256.414 177.283 256.422 180.111C256.422 182.408 258.055 183.729 260.688 184.408L262.508 184.877C264.234 185.314 265.375 185.854 265.383 187.096C265.375 188.463 264.078 189.377 262.188 189.377C260.375 189.377 258.969 188.564 258.852 186.885H256C256.117 190.064 258.484 191.854 262.211 191.854C266.047 191.854 268.273 189.939 268.281 187.119C268.273 184.346 265.984 183.08 263.578 182.51L262.078 182.135C260.766 181.822 259.344 181.268 259.359 179.932C259.367 178.729 260.445 177.846 262.258 177.846C263.984 177.846 265.125 178.65 265.273 180.01ZM270.425 175.611V191.611H273.206V180.596H273.355L277.777 191.564H279.855L284.277 180.619H284.425V191.611H287.206V175.611H283.66L278.91 187.205H278.722L273.972 175.611H270.425ZM298.618 180.01H301.407C301.352 177.307 299.048 175.393 295.641 175.393C292.282 175.393 289.759 177.283 289.766 180.111C289.766 182.408 291.399 183.729 294.032 184.408L295.852 184.877C297.579 185.314 298.72 185.854 298.727 187.096C298.72 188.463 297.423 189.377 295.532 189.377C293.72 189.377 292.313 188.564 292.196 186.885H289.345C289.462 190.064 291.829 191.854 295.556 191.854C299.391 191.854 301.618 189.939 301.626 187.119C301.618 184.346 299.329 183.08 296.923 182.51L295.423 182.135C294.11 181.822 292.688 181.268 292.704 179.932C292.712 178.729 293.79 177.846 295.602 177.846C297.329 177.846 298.47 178.65 298.618 180.01Z" fill="white"/>
<path d="M230.893 160H206.323C200.622 160 196 164.622 196 170.323V194.893C196 200.594 200.622 205.216 206.323 205.216H230.893C236.594 205.216 241.216 200.594 241.216 194.893V170.323C241.216 164.622 236.594 160 230.893 160Z" fill="url(#paint0_linear_17256_70362)"/>
<path d="M218.603 167.832C209.441 167.832 202.008 174.026 202.008 181.652C202.008 186.504 205.079 190.995 210.073 193.486C209.415 194.944 208.434 196.324 207.169 197.55C209.621 197.125 211.931 196.208 213.905 194.905C215.428 195.279 217.015 195.473 218.603 195.473C227.765 195.473 235.197 189.279 235.197 181.652C235.197 174.013 227.765 167.832 218.603 167.832V167.832Z" fill="white"/>
<path d="M196.46 234.909L201.19 242.605V248H202.776V242.605L207.506 234.909H205.69L202.06 241.02H201.906L198.276 234.909H196.46ZM211.951 248.205C214.61 248.205 216.4 246.185 216.4 243.142C216.4 240.074 214.61 238.054 211.951 238.054C209.292 238.054 207.502 240.074 207.502 243.142C207.502 246.185 209.292 248.205 211.951 248.205ZM211.951 246.849C209.931 246.849 209.011 245.111 209.011 243.142C209.011 241.173 209.931 239.409 211.951 239.409C213.971 239.409 214.892 241.173 214.892 243.142C214.892 245.111 213.971 246.849 211.951 246.849ZM224.89 243.986C224.89 245.827 223.484 246.67 222.359 246.67C221.106 246.67 220.211 245.75 220.211 244.318V238.182H218.703V244.42C218.703 246.926 220.032 248.128 221.873 248.128C223.356 248.128 224.328 247.335 224.788 246.338H224.89V248H226.399V238.182H224.89V243.986ZM229.162 248H230.67V241.787C230.67 240.457 231.719 239.486 233.151 239.486C233.553 239.486 233.969 239.562 234.071 239.588V238.054C233.898 238.041 233.502 238.028 233.278 238.028C232.102 238.028 231.08 238.693 230.722 239.665H230.619V238.182H229.162V248ZM244.91 248.205C247.569 248.205 249.359 246.185 249.359 243.142C249.359 240.074 247.569 238.054 244.91 238.054C242.251 238.054 240.461 240.074 240.461 243.142C240.461 246.185 242.251 248.205 244.91 248.205ZM244.91 246.849C242.89 246.849 241.97 245.111 241.97 243.142C241.97 241.173 242.89 239.409 244.91 239.409C246.93 239.409 247.851 241.173 247.851 243.142C247.851 245.111 246.93 246.849 244.91 246.849ZM253.17 242.094C253.17 240.381 254.232 239.409 255.676 239.409C257.076 239.409 257.926 240.323 257.926 241.864V248H259.435V241.761C259.435 239.256 258.099 238.054 256.111 238.054C254.628 238.054 253.707 238.719 253.247 239.716H253.119V238.182H251.662V248H253.17V242.094ZM266.308 248.205C268.302 248.205 269.759 247.207 270.22 245.724L268.762 245.315C268.379 246.338 267.49 246.849 266.308 246.849C264.537 246.849 263.316 245.705 263.246 243.602H270.373V242.963C270.373 239.307 268.2 238.054 266.154 238.054C263.495 238.054 261.731 240.151 261.731 243.168C261.731 246.185 263.47 248.205 266.308 248.205ZM263.246 242.298C263.348 240.771 264.428 239.409 266.154 239.409C267.791 239.409 268.839 240.636 268.839 242.298H263.246ZM282 238.182H279.904V235.83H278.395V238.182H276.912V239.46H278.395V245.597C278.395 247.31 279.776 248.128 281.054 248.128C281.617 248.128 281.975 248.026 282.179 247.949L281.872 246.594C281.744 246.619 281.54 246.67 281.208 246.67C280.543 246.67 279.904 246.466 279.904 245.188V239.46H282V238.182ZM284.269 248H285.778V238.182H284.269V248ZM285.036 236.545C285.624 236.545 286.11 236.085 286.11 235.523C286.11 234.96 285.624 234.5 285.036 234.5C284.448 234.5 283.963 234.96 283.963 235.523C283.963 236.085 284.448 236.545 285.036 236.545ZM288.541 248H290.049V241.864C290.049 240.425 291.098 239.409 292.274 239.409C293.418 239.409 294.217 240.157 294.217 241.276V248H295.751V241.608C295.751 240.342 296.544 239.409 297.924 239.409C298.998 239.409 299.919 239.978 299.919 241.429V248H301.427V241.429C301.427 239.121 300.187 238.054 298.436 238.054C297.029 238.054 296 238.7 295.495 239.716H295.393C294.907 238.668 294.051 238.054 292.76 238.054C291.481 238.054 290.535 238.668 290.126 239.716H289.998V238.182H288.541V248ZM308.302 248.205C310.296 248.205 311.754 247.207 312.214 245.724L310.756 245.315C310.373 246.338 309.484 246.849 308.302 246.849C306.531 246.849 305.31 245.705 305.24 243.602H312.367V242.963C312.367 239.307 310.194 238.054 308.148 238.054C305.489 238.054 303.725 240.151 303.725 243.168C303.725 246.185 305.464 248.205 308.302 248.205ZM305.24 242.298C305.342 240.771 306.423 239.409 308.148 239.409C309.785 239.409 310.833 240.636 310.833 242.298H305.24ZM205.409 263.182H203.773L201.062 271.006H200.96L198.25 263.182H196.614L200.244 273H201.778L205.409 263.182ZM211.165 273.205C213.159 273.205 214.617 272.207 215.077 270.724L213.62 270.315C213.236 271.338 212.348 271.849 211.165 271.849C209.395 271.849 208.174 270.705 208.103 268.602H215.23V267.963C215.23 264.307 213.057 263.054 211.012 263.054C208.353 263.054 206.588 265.151 206.588 268.168C206.588 271.185 208.327 273.205 211.165 273.205ZM208.103 267.298C208.206 265.771 209.286 264.409 211.012 264.409C212.648 264.409 213.696 265.636 213.696 267.298H208.103ZM217.525 273H219.034V266.787C219.034 265.457 220.082 264.486 221.514 264.486C221.917 264.486 222.332 264.562 222.434 264.588V263.054C222.262 263.041 221.865 263.028 221.642 263.028C220.466 263.028 219.443 263.693 219.085 264.665H218.983V263.182H217.525V273ZM224.222 273H225.731V263.182H224.222V273ZM224.99 261.545C225.578 261.545 226.063 261.085 226.063 260.523C226.063 259.96 225.578 259.5 224.99 259.5C224.401 259.5 223.916 259.96 223.916 260.523C223.916 261.085 224.401 261.545 224.99 261.545ZM232.866 263.182H230.667V262.185C230.667 261.213 231.076 260.702 232.074 260.702C232.508 260.702 232.764 260.804 232.917 260.855L233.352 259.551C233.122 259.449 232.662 259.295 231.92 259.295C230.514 259.295 229.159 260.139 229.159 261.827V263.182H227.574V264.46H229.159V273H230.667V264.46H232.866V263.182ZM234.98 273H236.489V263.182H234.98V273ZM235.747 261.545C236.335 261.545 236.821 261.085 236.821 260.523C236.821 259.96 236.335 259.5 235.747 259.5C235.159 259.5 234.673 259.96 234.673 260.523C234.673 261.085 235.159 261.545 235.747 261.545ZM243.24 273.205C245.414 273.205 246.846 271.875 247.101 270.136H245.593C245.311 271.21 244.417 271.849 243.24 271.849C241.451 271.849 240.3 270.366 240.3 268.091C240.3 265.866 241.476 264.409 243.24 264.409C244.57 264.409 245.363 265.227 245.593 266.122H247.101C246.846 264.281 245.286 263.054 243.215 263.054C240.556 263.054 238.792 265.151 238.792 268.142C238.792 271.082 240.479 273.205 243.24 273.205ZM252.196 273.23C253.909 273.23 254.804 272.31 255.11 271.67H255.187V273H256.696V266.531C256.696 263.412 254.318 263.054 253.065 263.054C251.582 263.054 249.895 263.565 249.127 265.355L250.559 265.866C250.892 265.151 251.678 264.384 253.116 264.384C254.503 264.384 255.187 265.119 255.187 266.378V266.429C255.187 267.158 254.446 267.094 252.656 267.324C250.834 267.56 248.846 267.963 248.846 270.213C248.846 272.131 250.329 273.23 252.196 273.23ZM252.426 271.875C251.224 271.875 250.355 271.338 250.355 270.29C250.355 269.139 251.403 268.781 252.579 268.628C253.218 268.551 254.931 268.372 255.187 268.065V269.446C255.187 270.673 254.216 271.875 252.426 271.875ZM263.719 263.182H261.622V260.83H260.114V263.182H258.631V264.46H260.114V270.597C260.114 272.31 261.494 273.128 262.773 273.128C263.335 273.128 263.693 273.026 263.898 272.949L263.591 271.594C263.463 271.619 263.259 271.67 262.926 271.67C262.262 271.67 261.622 271.466 261.622 270.188V264.46H263.719V263.182ZM265.988 273H267.497V263.182H265.988V273ZM266.755 261.545C267.343 261.545 267.829 261.085 267.829 260.523C267.829 259.96 267.343 259.5 266.755 259.5C266.167 259.5 265.681 259.96 265.681 260.523C265.681 261.085 266.167 261.545 266.755 261.545ZM274.248 273.205C276.907 273.205 278.697 271.185 278.697 268.142C278.697 265.074 276.907 263.054 274.248 263.054C271.589 263.054 269.799 265.074 269.799 268.142C269.799 271.185 271.589 273.205 274.248 273.205ZM274.248 271.849C272.228 271.849 271.308 270.111 271.308 268.142C271.308 266.173 272.228 264.409 274.248 264.409C276.268 264.409 277.189 266.173 277.189 268.142C277.189 270.111 276.268 271.849 274.248 271.849ZM282.508 267.094C282.508 265.381 283.569 264.409 285.014 264.409C286.414 264.409 287.264 265.323 287.264 266.864V273H288.773V266.761C288.773 264.256 287.437 263.054 285.449 263.054C283.966 263.054 283.045 263.719 282.585 264.716H282.457V263.182H281V273H282.508V267.094ZM300.58 273.205C302.754 273.205 304.185 271.875 304.441 270.136H302.933C302.651 271.21 301.756 271.849 300.58 271.849C298.79 271.849 297.64 270.366 297.64 268.091C297.64 265.866 298.816 264.409 300.58 264.409C301.91 264.409 302.702 265.227 302.933 266.122H304.441C304.185 264.281 302.626 263.054 300.555 263.054C297.896 263.054 296.131 265.151 296.131 268.142C296.131 271.082 297.819 273.205 300.58 273.205ZM310.635 273.205C313.294 273.205 315.084 271.185 315.084 268.142C315.084 265.074 313.294 263.054 310.635 263.054C307.976 263.054 306.186 265.074 306.186 268.142C306.186 271.185 307.976 273.205 310.635 273.205ZM310.635 271.849C308.615 271.849 307.695 270.111 307.695 268.142C307.695 266.173 308.615 264.409 310.635 264.409C312.655 264.409 313.575 266.173 313.575 268.142C313.575 270.111 312.655 271.849 310.635 271.849ZM321.094 273.205C322.986 273.205 323.625 272.028 323.958 271.491H324.137V273H325.594V259.909H324.085V264.741H323.958C323.625 264.23 323.037 263.054 321.119 263.054C318.639 263.054 316.926 265.023 316.926 268.116C316.926 271.236 318.639 273.205 321.094 273.205ZM321.298 271.849C319.406 271.849 318.435 270.188 318.435 268.091C318.435 266.02 319.381 264.409 321.298 264.409C323.139 264.409 324.111 265.892 324.111 268.091C324.111 270.315 323.114 271.849 321.298 271.849ZM332.683 273.205C334.677 273.205 336.134 272.207 336.595 270.724L335.137 270.315C334.754 271.338 333.865 271.849 332.683 271.849C330.912 271.849 329.691 270.705 329.621 268.602H336.748V267.963C336.748 264.307 334.575 263.054 332.529 263.054C329.87 263.054 328.106 265.151 328.106 268.168C328.106 271.185 329.845 273.205 332.683 273.205ZM329.621 267.298C329.723 265.771 330.803 264.409 332.529 264.409C334.166 264.409 335.214 265.636 335.214 267.298H329.621ZM344.105 273H345.614V263.182H344.105V273ZM344.872 261.545C345.46 261.545 345.946 261.085 345.946 260.523C345.946 259.96 345.46 259.5 344.872 259.5C344.284 259.5 343.798 259.96 343.798 260.523C343.798 261.085 344.284 261.545 344.872 261.545ZM355.331 265.381C354.858 263.987 353.797 263.054 351.854 263.054C349.783 263.054 348.249 264.23 348.249 265.892C348.249 267.247 349.054 268.155 350.857 268.577L352.493 268.96C353.484 269.19 353.951 269.663 353.951 270.341C353.951 271.185 353.056 271.875 351.65 271.875C350.416 271.875 349.642 271.344 349.374 270.29L347.942 270.648C348.294 272.316 349.668 273.205 351.675 273.205C353.957 273.205 355.51 271.958 355.51 270.264C355.51 268.896 354.654 268.033 352.902 267.605L351.445 267.247C350.282 266.96 349.757 266.57 349.757 265.815C349.757 264.972 350.652 264.358 351.854 264.358C353.171 264.358 353.714 265.087 353.976 265.764L355.331 265.381ZM358.881 273.102C359.513 273.102 360.031 272.585 360.031 271.952C360.031 271.319 359.513 270.801 358.881 270.801C358.248 270.801 357.73 271.319 357.73 271.952C357.73 272.585 358.248 273.102 358.881 273.102ZM358.881 265.815C359.513 265.815 360.031 265.298 360.031 264.665C360.031 264.032 359.513 263.514 358.881 263.514C358.248 263.514 357.73 264.032 357.73 264.665C357.73 265.298 358.248 265.815 358.881 265.815ZM201.957 298.179C204.783 298.198 206.681 296.255 206.675 293.666C206.681 291.192 204.917 289.403 202.622 289.403C201.216 289.403 199.976 290.087 199.349 291.212H199.26C199.266 288.457 200.276 286.782 202.092 286.782C203.217 286.782 203.977 287.434 204.22 288.438H206.553C206.272 286.322 204.565 284.73 202.092 284.73C198.947 284.73 196.959 287.351 196.959 291.825C196.952 296.626 199.445 298.166 201.957 298.179ZM201.945 296.261C200.545 296.261 199.522 295.104 199.516 293.737C199.528 292.362 200.589 291.212 201.977 291.212C203.364 291.212 204.38 292.311 204.374 293.717C204.38 295.149 203.332 296.261 201.945 296.261ZM213.533 298.179C216.333 298.179 218.372 296.575 218.366 294.363C218.372 292.727 217.349 291.55 215.515 291.288V291.186C216.934 290.879 217.886 289.825 217.88 288.354C217.886 286.36 216.186 284.73 213.572 284.73C211.028 284.73 209.059 286.245 209.008 288.438H211.29C211.328 287.338 212.351 286.654 213.559 286.654C214.78 286.654 215.592 287.396 215.585 288.495C215.592 289.639 214.646 290.4 213.29 290.4H212.134V292.228H213.29C214.946 292.228 215.93 293.059 215.924 294.241C215.93 295.398 214.927 296.191 213.527 296.191C212.21 296.191 211.194 295.507 211.136 294.44H208.733C208.797 296.651 210.772 298.179 213.533 298.179ZM225.111 298.179C227.879 298.179 229.809 296.3 229.809 293.698C229.809 291.18 228.058 289.364 225.68 289.364C224.619 289.364 223.679 289.786 223.193 290.362H223.117L223.494 286.891H229.125V284.909H221.531L220.847 291.659L222.989 292.011C223.43 291.525 224.261 291.199 225.047 291.205C226.485 291.212 227.521 292.273 227.514 293.756C227.521 295.219 226.511 296.261 225.111 296.261C223.928 296.261 222.976 295.513 222.893 294.44H220.592C220.656 296.613 222.554 298.179 225.111 298.179ZM236.744 298.179C239.57 298.198 241.468 296.255 241.462 293.666C241.468 291.192 239.704 289.403 237.409 289.403C236.003 289.403 234.763 290.087 234.137 291.212H234.047C234.053 288.457 235.063 286.782 236.879 286.782C238.004 286.782 238.764 287.434 239.007 288.438H241.34C241.059 286.322 239.352 284.73 236.879 284.73C233.734 284.73 231.746 287.351 231.746 291.825C231.74 296.626 234.232 298.166 236.744 298.179ZM236.732 296.261C235.332 296.261 234.309 295.104 234.303 293.737C234.316 292.362 235.377 291.212 236.764 291.212C238.151 291.212 239.167 292.311 239.161 293.717C239.167 295.149 238.119 296.261 236.732 296.261ZM248.461 298.249C251.619 298.256 253.504 295.763 253.504 291.467C253.504 287.197 251.606 284.73 248.461 284.73C245.316 284.73 243.424 287.191 243.418 291.467C243.418 295.756 245.303 298.249 248.461 298.249ZM248.461 296.249C246.831 296.249 245.808 294.612 245.815 291.467C245.821 288.348 246.838 286.705 248.461 286.705C250.091 286.705 251.107 288.348 251.114 291.467C251.114 294.612 250.097 296.249 248.461 296.249ZM260.422 298.179C263.248 298.198 265.146 296.255 265.14 293.666C265.146 291.192 263.382 289.403 261.087 289.403C259.681 289.403 258.441 290.087 257.814 291.212H257.725C257.731 288.457 258.741 286.782 260.556 286.782C261.681 286.782 262.442 287.434 262.685 288.438H265.018C264.737 286.322 263.03 284.73 260.556 284.73C257.412 284.73 255.424 287.351 255.424 291.825C255.417 296.626 257.91 298.166 260.422 298.179ZM260.409 296.261C259.01 296.261 257.987 295.104 257.98 293.737C257.993 292.362 259.054 291.212 260.441 291.212C261.828 291.212 262.845 292.311 262.838 293.717C262.845 295.149 261.797 296.261 260.409 296.261ZM268.189 298.141C268.943 298.141 269.588 297.514 269.595 296.734C269.588 295.967 268.943 295.341 268.189 295.341C267.409 295.341 266.776 295.967 266.782 296.734C266.776 297.514 267.409 298.141 268.189 298.141ZM277.443 298H279.028V293.219H281.892C284.941 293.219 286.315 291.365 286.315 289.051C286.315 286.737 284.941 284.909 281.866 284.909H277.443V298ZM279.028 291.812V286.315H281.815C283.943 286.315 284.755 287.479 284.755 289.051C284.755 290.624 283.943 291.812 281.84 291.812H279.028ZM290.172 284.909H288.664V298H290.172V284.909ZM297.052 298.205C299.046 298.205 300.504 297.207 300.964 295.724L299.506 295.315C299.123 296.338 298.234 296.849 297.052 296.849C295.281 296.849 294.06 295.705 293.99 293.602H301.117V292.963C301.117 289.307 298.944 288.054 296.898 288.054C294.239 288.054 292.475 290.151 292.475 293.168C292.475 296.185 294.214 298.205 297.052 298.205ZM293.99 292.298C294.092 290.771 295.173 289.409 296.898 289.409C298.535 289.409 299.583 290.636 299.583 292.298H293.99ZM306.301 298.23C308.014 298.23 308.909 297.31 309.216 296.67H309.293V298H310.801V291.531C310.801 288.412 308.423 288.054 307.17 288.054C305.688 288.054 304 288.565 303.233 290.355L304.665 290.866C304.997 290.151 305.783 289.384 307.222 289.384C308.609 289.384 309.293 290.119 309.293 291.378V291.429C309.293 292.158 308.551 292.094 306.761 292.324C304.94 292.56 302.952 292.963 302.952 295.213C302.952 297.131 304.435 298.23 306.301 298.23ZM306.531 296.875C305.33 296.875 304.46 296.338 304.46 295.29C304.46 294.139 305.509 293.781 306.685 293.628C307.324 293.551 309.037 293.372 309.293 293.065V294.446C309.293 295.673 308.321 296.875 306.531 296.875ZM320.509 290.381C320.036 288.987 318.975 288.054 317.032 288.054C314.961 288.054 313.427 289.23 313.427 290.892C313.427 292.247 314.232 293.155 316.035 293.577L317.671 293.96C318.662 294.19 319.128 294.663 319.128 295.341C319.128 296.185 318.233 296.875 316.827 296.875C315.594 296.875 314.82 296.344 314.552 295.29L313.12 295.648C313.471 297.316 314.846 298.205 316.853 298.205C319.135 298.205 320.688 296.958 320.688 295.264C320.688 293.896 319.831 293.033 318.08 292.605L316.623 292.247C315.459 291.96 314.935 291.57 314.935 290.815C314.935 289.972 315.83 289.358 317.032 289.358C318.349 289.358 318.892 290.087 319.154 290.764L320.509 290.381ZM327.075 298.205C329.07 298.205 330.527 297.207 330.987 295.724L329.53 295.315C329.146 296.338 328.258 296.849 327.075 296.849C325.305 296.849 324.084 295.705 324.013 293.602H331.141V292.963C331.141 289.307 328.967 288.054 326.922 288.054C324.263 288.054 322.499 290.151 322.499 293.168C322.499 296.185 324.237 298.205 327.075 298.205ZM324.013 292.298C324.116 290.771 325.196 289.409 326.922 289.409C328.558 289.409 329.607 290.636 329.607 292.298H324.013ZM342.768 288.182H340.671V285.83H339.163V288.182H337.68V289.46H339.163V295.597C339.163 297.31 340.543 298.128 341.822 298.128C342.384 298.128 342.742 298.026 342.947 297.949L342.64 296.594C342.512 296.619 342.308 296.67 341.975 296.67C341.31 296.67 340.671 296.466 340.671 295.188V289.46H342.768V288.182ZM346.009 301.682C347.37 301.682 348.329 300.96 348.898 299.432L353.065 288.182H351.429L348.719 296.006H348.616L345.906 288.182H344.27L347.901 298.051L347.619 298.818C347.07 300.314 346.392 300.455 345.293 300.173L344.909 301.503C345.062 301.58 345.497 301.682 346.009 301.682ZM355.056 301.682H356.565V296.491H356.693C357.025 297.028 357.664 298.205 359.556 298.205C362.011 298.205 363.724 296.236 363.724 293.116C363.724 290.023 362.011 288.054 359.531 288.054C357.613 288.054 357.025 289.23 356.693 289.741H356.514V288.182H355.056V301.682ZM356.539 293.091C356.539 290.892 357.511 289.409 359.352 289.409C361.27 289.409 362.216 291.02 362.216 293.091C362.216 295.188 361.244 296.849 359.352 296.849C357.537 296.849 356.539 295.315 356.539 293.091ZM370.142 298.205C372.136 298.205 373.593 297.207 374.054 295.724L372.596 295.315C372.213 296.338 371.324 296.849 370.142 296.849C368.371 296.849 367.15 295.705 367.08 293.602H374.207V292.963C374.207 289.307 372.034 288.054 369.988 288.054C367.329 288.054 365.565 290.151 365.565 293.168C365.565 296.185 367.304 298.205 370.142 298.205ZM367.08 292.298C367.182 290.771 368.262 289.409 369.988 289.409C371.625 289.409 372.673 290.636 372.673 292.298H367.08ZM201.651 313.182H199.554V310.83H198.045V313.182H196.562V314.46H198.045V320.597C198.045 322.31 199.426 323.128 200.705 323.128C201.267 323.128 201.625 323.026 201.83 322.949L201.523 321.594C201.395 321.619 201.19 321.67 200.858 321.67C200.193 321.67 199.554 321.466 199.554 320.188V314.46H201.651V313.182ZM205.639 317.094C205.639 315.381 206.732 314.409 208.222 314.409C209.641 314.409 210.497 315.304 210.497 316.864V323H212.006V316.761C212.006 314.237 210.663 313.054 208.656 313.054C207.109 313.054 206.227 313.7 205.767 314.716H205.639V309.909H204.131V323H205.639V317.094ZM214.765 323H216.274V313.182H214.765V323ZM215.532 311.545C216.121 311.545 216.606 311.085 216.606 310.523C216.606 309.96 216.121 309.5 215.532 309.5C214.944 309.5 214.459 309.96 214.459 310.523C214.459 311.085 214.944 311.545 215.532 311.545ZM225.991 315.381C225.518 313.987 224.457 313.054 222.514 313.054C220.443 313.054 218.909 314.23 218.909 315.892C218.909 317.247 219.714 318.155 221.517 318.577L223.153 318.96C224.144 319.19 224.611 319.663 224.611 320.341C224.611 321.185 223.716 321.875 222.31 321.875C221.076 321.875 220.303 321.344 220.034 320.29L218.602 320.648C218.954 322.316 220.328 323.205 222.335 323.205C224.617 323.205 226.17 321.958 226.17 320.264C226.17 318.896 225.314 318.033 223.562 317.605L222.105 317.247C220.942 316.96 220.418 316.57 220.418 315.815C220.418 314.972 221.312 314.358 222.514 314.358C223.831 314.358 224.374 315.087 224.636 315.764L225.991 315.381ZM237.492 323.205C239.666 323.205 241.097 321.875 241.353 320.136H239.845C239.563 321.21 238.669 321.849 237.492 321.849C235.703 321.849 234.552 320.366 234.552 318.091C234.552 315.866 235.728 314.409 237.492 314.409C238.822 314.409 239.615 315.227 239.845 316.122H241.353C241.097 314.281 239.538 313.054 237.467 313.054C234.808 313.054 233.044 315.151 233.044 318.142C233.044 321.082 234.731 323.205 237.492 323.205ZM247.547 323.205C250.206 323.205 251.996 321.185 251.996 318.142C251.996 315.074 250.206 313.054 247.547 313.054C244.888 313.054 243.098 315.074 243.098 318.142C243.098 321.185 244.888 323.205 247.547 323.205ZM247.547 321.849C245.527 321.849 244.607 320.111 244.607 318.142C244.607 316.173 245.527 314.409 247.547 314.409C249.567 314.409 250.487 316.173 250.487 318.142C250.487 320.111 249.567 321.849 247.547 321.849ZM258.006 323.205C259.898 323.205 260.537 322.028 260.87 321.491H261.049V323H262.506V309.909H260.998V314.741H260.87C260.537 314.23 259.949 313.054 258.032 313.054C255.551 313.054 253.838 315.023 253.838 318.116C253.838 321.236 255.551 323.205 258.006 323.205ZM258.211 321.849C256.319 321.849 255.347 320.188 255.347 318.091C255.347 316.02 256.293 314.409 258.211 314.409C260.051 314.409 261.023 315.892 261.023 318.091C261.023 320.315 260.026 321.849 258.211 321.849ZM269.595 323.205C271.589 323.205 273.047 322.207 273.507 320.724L272.049 320.315C271.666 321.338 270.777 321.849 269.595 321.849C267.824 321.849 266.603 320.705 266.533 318.602H273.66V317.963C273.66 314.307 271.487 313.054 269.441 313.054C266.782 313.054 265.018 315.151 265.018 318.168C265.018 321.185 266.757 323.205 269.595 323.205ZM266.533 317.298C266.635 315.771 267.716 314.409 269.441 314.409C271.078 314.409 272.126 315.636 272.126 317.298H266.533ZM281.017 323H282.526V313.182H281.017V323ZM281.784 311.545C282.373 311.545 282.858 311.085 282.858 310.523C282.858 309.96 282.373 309.5 281.784 309.5C281.196 309.5 280.711 309.96 280.711 310.523C280.711 311.085 281.196 311.545 281.784 311.545ZM286.797 317.094C286.797 315.381 287.858 314.409 289.303 314.409C290.703 314.409 291.553 315.323 291.553 316.864V323H293.062V316.761C293.062 314.256 291.726 313.054 289.738 313.054C288.255 313.054 287.334 313.719 286.874 314.716H286.746V313.182H285.289V323H286.797V317.094ZM301.852 326.682C303.214 326.682 304.173 325.96 304.741 324.432L308.909 313.182H307.273L304.562 321.006H304.46L301.75 313.182H300.114L303.744 323.051L303.463 323.818C302.913 325.314 302.236 325.455 301.136 325.173L300.753 326.503C300.906 326.58 301.341 326.682 301.852 326.682ZM314.537 323.205C317.196 323.205 318.986 321.185 318.986 318.142C318.986 315.074 317.196 313.054 314.537 313.054C311.878 313.054 310.088 315.074 310.088 318.142C310.088 321.185 311.878 323.205 314.537 323.205ZM314.537 321.849C312.517 321.849 311.597 320.111 311.597 318.142C311.597 316.173 312.517 314.409 314.537 314.409C316.557 314.409 317.478 316.173 317.478 318.142C317.478 320.111 316.557 321.849 314.537 321.849ZM327.476 318.986C327.476 320.827 326.07 321.67 324.945 321.67C323.692 321.67 322.797 320.75 322.797 319.318V313.182H321.289V319.42C321.289 321.926 322.618 323.128 324.459 323.128C325.942 323.128 326.914 322.335 327.374 321.338H327.476V323H328.985V313.182H327.476V318.986ZM331.748 323H333.256V316.787C333.256 315.457 334.305 314.486 335.737 314.486C336.139 314.486 336.555 314.562 336.657 314.588V313.054C336.484 313.041 336.088 313.028 335.864 313.028C334.688 313.028 333.665 313.693 333.308 314.665H333.205V313.182H331.748V323ZM346.397 323.23C348.11 323.23 349.005 322.31 349.312 321.67H349.388V323H350.897V316.531C350.897 313.412 348.519 313.054 347.266 313.054C345.783 313.054 344.096 313.565 343.329 315.355L344.76 315.866C345.093 315.151 345.879 314.384 347.317 314.384C348.704 314.384 349.388 315.119 349.388 316.378V316.429C349.388 317.158 348.647 317.094 346.857 317.324C345.035 317.56 343.047 317.963 343.047 320.213C343.047 322.131 344.53 323.23 346.397 323.23ZM346.627 321.875C345.425 321.875 344.556 321.338 344.556 320.29C344.556 319.139 345.604 318.781 346.78 318.628C347.42 318.551 349.133 318.372 349.388 318.065V319.446C349.388 320.673 348.417 321.875 346.627 321.875ZM353.65 326.682H355.159V321.491H355.287C355.619 322.028 356.258 323.205 358.15 323.205C360.605 323.205 362.318 321.236 362.318 318.116C362.318 315.023 360.605 313.054 358.125 313.054C356.207 313.054 355.619 314.23 355.287 314.741H355.108V313.182H353.65V326.682ZM355.133 318.091C355.133 315.892 356.105 314.409 357.946 314.409C359.863 314.409 360.809 316.02 360.809 318.091C360.809 320.188 359.838 321.849 357.946 321.849C356.13 321.849 355.133 320.315 355.133 318.091ZM364.619 326.682H366.127V321.491H366.255C366.588 322.028 367.227 323.205 369.119 323.205C371.574 323.205 373.287 321.236 373.287 318.116C373.287 315.023 371.574 313.054 369.093 313.054C367.176 313.054 366.588 314.23 366.255 314.741H366.076V313.182H364.619V326.682ZM366.102 318.091C366.102 315.892 367.074 314.409 368.914 314.409C370.832 314.409 371.778 316.02 371.778 318.091C371.778 320.188 370.806 321.849 368.914 321.849C367.099 321.849 366.102 320.315 366.102 318.091ZM201.651 338.182H199.554V335.83H198.045V338.182H196.562V339.46H198.045V345.597C198.045 347.31 199.426 348.128 200.705 348.128C201.267 348.128 201.625 348.026 201.83 347.949L201.523 346.594C201.395 346.619 201.19 346.67 200.858 346.67C200.193 346.67 199.554 346.466 199.554 345.188V339.46H201.651V338.182ZM207.803 348.205C210.462 348.205 212.252 346.185 212.252 343.142C212.252 340.074 210.462 338.054 207.803 338.054C205.144 338.054 203.354 340.074 203.354 343.142C203.354 346.185 205.144 348.205 207.803 348.205ZM207.803 346.849C205.783 346.849 204.863 345.111 204.863 343.142C204.863 341.173 205.783 339.409 207.803 339.409C209.823 339.409 210.743 341.173 210.743 343.142C210.743 345.111 209.823 346.849 207.803 346.849ZM223.606 348.205C225.779 348.205 227.211 346.875 227.466 345.136H225.958C225.677 346.21 224.782 346.849 223.606 346.849C221.816 346.849 220.665 345.366 220.665 343.091C220.665 340.866 221.841 339.409 223.606 339.409C224.935 339.409 225.728 340.227 225.958 341.122H227.466C227.211 339.281 225.651 338.054 223.58 338.054C220.921 338.054 219.157 340.151 219.157 343.142C219.157 346.082 220.844 348.205 223.606 348.205ZM233.66 348.205C236.319 348.205 238.109 346.185 238.109 343.142C238.109 340.074 236.319 338.054 233.66 338.054C231.001 338.054 229.211 340.074 229.211 343.142C229.211 346.185 231.001 348.205 233.66 348.205ZM233.66 346.849C231.64 346.849 230.72 345.111 230.72 343.142C230.72 341.173 231.64 339.409 233.66 339.409C235.68 339.409 236.601 341.173 236.601 343.142C236.601 345.111 235.68 346.849 233.66 346.849ZM240.412 348H241.92V341.864C241.92 340.425 242.969 339.409 244.145 339.409C245.289 339.409 246.088 340.157 246.088 341.276V348H247.622V341.608C247.622 340.342 248.415 339.409 249.795 339.409C250.869 339.409 251.79 339.978 251.79 341.429V348H253.298V341.429C253.298 339.121 252.058 338.054 250.307 338.054C248.901 338.054 247.871 338.7 247.366 339.716H247.264C246.778 338.668 245.922 338.054 244.631 338.054C243.352 338.054 242.406 338.668 241.997 339.716H241.869V338.182H240.412V348ZM256.056 351.682H257.565V346.491H257.693C258.025 347.028 258.664 348.205 260.556 348.205C263.011 348.205 264.724 346.236 264.724 343.116C264.724 340.023 263.011 338.054 260.531 338.054C258.613 338.054 258.025 339.23 257.693 339.741H257.514V338.182H256.056V351.682ZM257.539 343.091C257.539 340.892 258.511 339.409 260.352 339.409C262.27 339.409 263.216 341.02 263.216 343.091C263.216 345.188 262.244 346.849 260.352 346.849C258.537 346.849 257.539 345.315 257.539 343.091ZM268.534 334.909H267.025V348H268.534V334.909ZM275.413 348.205C277.407 348.205 278.865 347.207 279.325 345.724L277.868 345.315C277.484 346.338 276.596 346.849 275.413 346.849C273.643 346.849 272.422 345.705 272.351 343.602H279.479V342.963C279.479 339.307 277.305 338.054 275.26 338.054C272.601 338.054 270.836 340.151 270.836 343.168C270.836 346.185 272.575 348.205 275.413 348.205ZM272.351 342.298C272.454 340.771 273.534 339.409 275.26 339.409C276.896 339.409 277.944 340.636 277.944 342.298H272.351ZM286.043 338.182H283.947V335.83H282.438V338.182H280.955V339.46H282.438V345.597C282.438 347.31 283.819 348.128 285.097 348.128C285.66 348.128 286.018 348.026 286.222 347.949L285.915 346.594C285.787 346.619 285.583 346.67 285.251 346.67C284.586 346.67 283.947 346.466 283.947 345.188V339.46H286.043V338.182ZM292.323 348.205C294.318 348.205 295.775 347.207 296.235 345.724L294.778 345.315C294.394 346.338 293.506 346.849 292.323 346.849C290.553 346.849 289.332 345.705 289.262 343.602H296.389V342.963C296.389 339.307 294.215 338.054 292.17 338.054C289.511 338.054 287.747 340.151 287.747 343.168C287.747 346.185 289.485 348.205 292.323 348.205ZM289.262 342.298C289.364 340.771 290.444 339.409 292.17 339.409C293.806 339.409 294.855 340.636 294.855 342.298H289.262ZM308.016 338.182H305.919V335.83H304.411V338.182H302.928V339.46H304.411V345.597C304.411 347.31 305.791 348.128 307.07 348.128C307.632 348.128 307.99 348.026 308.195 347.949L307.888 346.594C307.76 346.619 307.556 346.67 307.223 346.67C306.558 346.67 305.919 346.466 305.919 345.188V339.46H308.016V338.182ZM312.004 342.094C312.004 340.381 313.097 339.409 314.587 339.409C316.006 339.409 316.862 340.304 316.862 341.864V348H318.371V341.761C318.371 339.237 317.029 338.054 315.021 338.054C313.475 338.054 312.593 338.7 312.132 339.716H312.004V334.909H310.496V348H312.004V342.094ZM325.247 348.205C327.241 348.205 328.699 347.207 329.159 345.724L327.702 345.315C327.318 346.338 326.43 346.849 325.247 346.849C323.477 346.849 322.256 345.705 322.185 343.602H329.312V342.963C329.312 339.307 327.139 338.054 325.094 338.054C322.435 338.054 320.67 340.151 320.67 343.168C320.67 346.185 322.409 348.205 325.247 348.205ZM322.185 342.298C322.288 340.771 323.368 339.409 325.094 339.409C326.73 339.409 327.778 340.636 327.778 342.298H322.185ZM205.409 363.182H203.773L201.062 371.006H200.96L198.25 363.182H196.614L200.244 373H201.778L205.409 363.182ZM211.165 373.205C213.159 373.205 214.617 372.207 215.077 370.724L213.62 370.315C213.236 371.338 212.348 371.849 211.165 371.849C209.395 371.849 208.174 370.705 208.103 368.602H215.23V367.963C215.23 364.307 213.057 363.054 211.012 363.054C208.353 363.054 206.588 365.151 206.588 368.168C206.588 371.185 208.327 373.205 211.165 373.205ZM208.103 367.298C208.206 365.771 209.286 364.409 211.012 364.409C212.648 364.409 213.696 365.636 213.696 367.298H208.103ZM217.525 373H219.034V366.787C219.034 365.457 220.082 364.486 221.514 364.486C221.917 364.486 222.332 364.562 222.434 364.588V363.054C222.262 363.041 221.865 363.028 221.642 363.028C220.466 363.028 219.443 363.693 219.085 364.665H218.983V363.182H217.525V373ZM224.222 373H225.731V363.182H224.222V373ZM224.99 361.545C225.578 361.545 226.063 361.085 226.063 360.523C226.063 359.96 225.578 359.5 224.99 359.5C224.401 359.5 223.916 359.96 223.916 360.523C223.916 361.085 224.401 361.545 224.99 361.545ZM232.866 363.182H230.667V362.185C230.667 361.213 231.076 360.702 232.074 360.702C232.508 360.702 232.764 360.804 232.917 360.855L233.352 359.551C233.122 359.449 232.662 359.295 231.92 359.295C230.514 359.295 229.159 360.139 229.159 361.827V363.182H227.574V364.46H229.159V373H230.667V364.46H232.866V363.182ZM234.98 373H236.489V363.182H234.98V373ZM235.747 361.545C236.335 361.545 236.821 361.085 236.821 360.523C236.821 359.96 236.335 359.5 235.747 359.5C235.159 359.5 234.673 359.96 234.673 360.523C234.673 361.085 235.159 361.545 235.747 361.545ZM243.24 373.205C245.414 373.205 246.846 371.875 247.101 370.136H245.593C245.311 371.21 244.417 371.849 243.24 371.849C241.451 371.849 240.3 370.366 240.3 368.091C240.3 365.866 241.476 364.409 243.24 364.409C244.57 364.409 245.363 365.227 245.593 366.122H247.101C246.846 364.281 245.286 363.054 243.215 363.054C240.556 363.054 238.792 365.151 238.792 368.142C238.792 371.082 240.479 373.205 243.24 373.205ZM252.196 373.23C253.909 373.23 254.804 372.31 255.11 371.67H255.187V373H256.696V366.531C256.696 363.412 254.318 363.054 253.065 363.054C251.582 363.054 249.895 363.565 249.127 365.355L250.559 365.866C250.892 365.151 251.678 364.384 253.116 364.384C254.503 364.384 255.187 365.119 255.187 366.378V366.429C255.187 367.158 254.446 367.094 252.656 367.324C250.834 367.56 248.846 367.963 248.846 370.213C248.846 372.131 250.329 373.23 252.196 373.23ZM252.426 371.875C251.224 371.875 250.355 371.338 250.355 370.29C250.355 369.139 251.403 368.781 252.579 368.628C253.218 368.551 254.931 368.372 255.187 368.065V369.446C255.187 370.673 254.216 371.875 252.426 371.875ZM263.719 363.182H261.622V360.83H260.114V363.182H258.631V364.46H260.114V370.597C260.114 372.31 261.494 373.128 262.773 373.128C263.335 373.128 263.693 373.026 263.898 372.949L263.591 371.594C263.463 371.619 263.259 371.67 262.926 371.67C262.262 371.67 261.622 371.466 261.622 370.188V364.46H263.719V363.182ZM265.988 373H267.497V363.182H265.988V373ZM266.755 361.545C267.343 361.545 267.829 361.085 267.829 360.523C267.829 359.96 267.343 359.5 266.755 359.5C266.167 359.5 265.681 359.96 265.681 360.523C265.681 361.085 266.167 361.545 266.755 361.545ZM274.248 373.205C276.907 373.205 278.697 371.185 278.697 368.142C278.697 365.074 276.907 363.054 274.248 363.054C271.589 363.054 269.799 365.074 269.799 368.142C269.799 371.185 271.589 373.205 274.248 373.205ZM274.248 371.849C272.228 371.849 271.308 370.111 271.308 368.142C271.308 366.173 272.228 364.409 274.248 364.409C276.268 364.409 277.189 366.173 277.189 368.142C277.189 370.111 276.268 371.849 274.248 371.849ZM282.508 367.094C282.508 365.381 283.569 364.409 285.014 364.409C286.414 364.409 287.264 365.323 287.264 366.864V373H288.773V366.761C288.773 364.256 287.437 363.054 285.449 363.054C283.966 363.054 283.045 363.719 282.585 364.716H282.457V363.182H281V373H282.508V367.094ZM292.629 373.102C293.261 373.102 293.779 372.585 293.779 371.952C293.779 371.319 293.261 370.801 292.629 370.801C291.996 370.801 291.478 371.319 291.478 371.952C291.478 372.585 291.996 373.102 292.629 373.102Z" fill="white"/>
<defs>
<linearGradient id="paint0_linear_17256_70362" x1="220.235" y1="219.629" x2="220.235" y2="183.074" gradientUnits="userSpaceOnUse">
<stop stop-color="#0AC030"/>
<stop offset="1" stop-color="#66F280"/>
</linearGradient>
</defs>
</svg>
